<svg xmlns:mydata="http://www.w3.org/2000/svg" mydata:contrastcolor="48142c" mydata:template="Contrast" mydata:presentation="2.5" mydata:layouttype="undefined" mydata:specialfontid="undefined" mydata:id1="851" mydata:id2="206" mydata:companyname="Andry Peña" mydata:companytagline="" version="1.1" xmlns="http://www.w3.org/2000/svg" xmlns:xlink="http://www.w3.org/1999/xlink" viewBox="0 0 550 470" style="background-color: rgb(72, 20, 44); background-image: radial-gradient(circle closest-side at center center, rgba(255, 255, 255, 0.07) 0%, rgba(255, 255, 255, 0) 100%);"><defs style="stroke: rgb(240, 67, 147); stroke-width: 1; fill-opacity: 1; stroke-opacity: 0; transition: fill-opacity 1200ms linear 0s, stroke-opacity 1200ms 0s;"><linearGradient x1="170.49402" y1="235" x2="379.50598" y2="235" gradientUnits="userSpaceOnUse" id="color-12480480854" style="stroke: rgb(240, 67, 147); stroke-width: 1; fill-opacity: 1; stroke-opacity: 0; transition: fill-opacity 1200ms linear 0s, stroke-opacity 1200ms 0s;"><stop offset="0" stop-color="#f04393" style="stroke: rgb(240, 67, 147); stroke-width: 1; fill-opacity: 1; stroke-opacity: 0; transition: fill-opacity 1200ms linear 0s, stroke-opacity 1200ms 0s;"></stop><stop offset="1" stop-color="#f9c449" style="stroke: rgb(240, 67, 147); stroke-width: 1; fill-opacity: 1; stroke-opacity: 0; transition: fill-opacity 1200ms linear 0s, stroke-opacity 1200ms 0s;"></stop></linearGradient></defs><g fill="url(#color-12480480854)" fill-rule="none" stroke="none" stroke-width="1" stroke-linecap="butt" stroke-linejoin="miter" stroke-miterlimit="10" stroke-dasharray="" stroke-dashoffset="0" font-family="none" font-weight="none" font-size="none" text-anchor="none" style="mix-blend-mode: normal; stroke: rgb(240, 67, 147); stroke-width: 1; fill-opacity: 1; stroke-opacity: 0; transition: fill-opacity 1200ms linear 0s, stroke-opacity 1200ms 0s;"><g data-paper-data="{&quot;isGlobalGroup&quot;:true,&quot;bounds&quot;:{&quot;x&quot;:170.4940211538902,&quot;y&quot;:115.00000000000001,&quot;width&quot;:209.01195769221957,&quot;height&quot;:240}}" style="stroke: rgb(240, 67, 147); stroke-width: 1; fill-opacity: 1; stroke-opacity: 0; transition: fill-opacity 1200ms linear 0s, stroke-opacity 1200ms 0s;"><g data-paper-data="{&quot;isSecondaryText&quot;:true}" fill-rule="nonzero" style="stroke: rgb(240, 67, 147); stroke-width: 1; fill-opacity: 1; stroke-opacity: 0; transition: fill-opacity 1200ms linear 0s, stroke-opacity 1200ms 0s;"><path d="M228.45774,346.99347c0,0.82572 -0.45709,1.43026 -1.7694,1.43026h-3.56829l0.26541,-0.26541v-2.31496l-0.26541,-0.26541h3.58303c1.3123,0 1.75465,0.56031 1.75465,1.41552zM231.37725,346.99347c0,-2.31496 -1.7694,-3.93691 -4.67416,-3.93691h-6.1929v11.94345h2.87527v-3.78946l-0.26541,-0.26541h3.56829c2.93425,0 4.68891,-1.71042 4.68891,-3.95166z" data-paper-data="{&quot;glyphName&quot;:&quot;P&quot;,&quot;glyphIndex&quot;:0,&quot;firstGlyphOfWord&quot;:true,&quot;word&quot;:1}" style="stroke: rgb(240, 67, 147); stroke-width: 1; fill-opacity: 1; stroke-opacity: 0; stroke-dasharray: 58, 98; stroke-dashoffset: 0; transition: fill-opacity 1200ms linear 0s, stroke-opacity 1200ms 0s;"></path><path d="M261.66138,352.47861h-7.63791l0.26541,-0.26541v-1.65144l-0.26541,-0.26541h6.93015v-2.53614h-6.93015l0.26541,-0.26541v-1.65144l-0.26541,-0.26541h7.63791v-2.52139h-10.24777v11.94345h10.24777z" data-paper-data="{&quot;glyphName&quot;:&quot;E&quot;,&quot;glyphIndex&quot;:1,&quot;word&quot;:1}" style="stroke: rgb(240, 67, 147); stroke-width: 1; fill-opacity: 1; stroke-opacity: 0; stroke-dasharray: 74, 114; stroke-dashoffset: 0; transition: fill-opacity 1200ms linear 0s, stroke-opacity 1200ms 0s;"></path><path d="M293.89755,343.05655h-2.87527v7.31352h-0.02949l-0.92893,-1.38603l-5.07228,-5.92749h-2.37394v11.94345h2.87527v-7.38724h0.02949l1.0174,1.50399l4.98381,5.88325h2.37394zM290.94855,339.07541c-0.23592,1.07638 -0.78148,1.12062 -1.19434,1.12062c-0.1327,0 -0.35388,-0.05898 -0.56031,-0.1327c-0.23592,-0.10321 -0.4276,-0.20643 -0.64878,-0.33913c-0.44235,-0.28015 -1.15011,-0.56031 -1.73991,-0.56031c-1.13536,0 -2.00532,0.85521 -2.30022,1.9021l1.12062,1.12062c0.26541,-1.00266 0.82572,-1.13536 1.13536,-1.13536c0.14745,0 0.38337,0.07372 0.60454,0.14745c0.23592,0.08847 0.41286,0.20643 0.63403,0.32439c0.47184,0.2949 1.15011,0.56031 1.71042,0.56031c1.06164,0 1.97583,-0.66352 2.3592,-1.87261z" data-paper-data="{&quot;glyphName&quot;:&quot;Ñ&quot;,&quot;glyphIndex&quot;:2,&quot;word&quot;:1}" style="stroke: rgb(240, 67, 147); stroke-width: 1; fill-opacity: 1; stroke-opacity: 0; stroke-dasharray: 88, 128; stroke-dashoffset: 0; transition: fill-opacity 1200ms linear 0s, stroke-opacity 1200ms 0s;"></path><path d="M320.70179,349.91298l0.30964,-0.26541l0.89944,-1.85787l0.44235,-1.20909l0.44235,1.20909l0.91419,1.85787l0.2949,0.26541zM323.57707,343.05655h-2.43292l-5.94223,11.94345h3.17017l1.25332,-2.58037l-0.17694,-0.26541h5.79478l-0.17694,0.26541l1.28281,2.58037h3.14068z" data-paper-data="{&quot;glyphName&quot;:&quot;A&quot;,&quot;glyphIndex&quot;:3,&quot;lastGlyphOfWord&quot;:true,&quot;word&quot;:1}" style="stroke: rgb(240, 67, 147); stroke-width: 1; fill-opacity: 1; stroke-opacity: 0; stroke-dasharray: 59, 99; stroke-dashoffset: 0; transition: fill-opacity 1200ms linear 0s, stroke-opacity 1200ms 0s;"></path></g><g data-paper-data="{&quot;isPrimaryText&quot;:true}" fill-rule="nonzero" style="stroke: rgb(240, 67, 147); stroke-width: 1; fill-opacity: 1; stroke-opacity: 0; transition: fill-opacity 1200ms linear 0s, stroke-opacity 1200ms 0s;"><path d="M204.20915,273.29691v0v0h-0.61934l-8.32233,29.88298c-0.18064,-0.07742 -0.36128,-0.15483 -0.54192,-0.23225l-0.77417,-0.34838c-5.05791,-1.88381 -9.76745,-1.94833 -14.12861,-0.19354c-4.36116,1.75479 -7.47075,5.30307 -9.32875,10.64484c2.58057,-4.25794 5.94176,-7.01915 10.08357,-8.28362c4.14181,-1.26448 8.4191,-1.26448 12.83188,0l0.81288,0.23225c0.15483,0.05161 0.30967,0.10322 0.4645,0.15483l-5.38049,19.39297c-0.15483,0.64514 -0.64514,1.47738 -1.47092,2.4967c-0.82578,1.01932 -1.92252,1.65802 -3.29022,1.91607h8.05137c-0.85159,-0.18064 -1.48383,-0.52902 -1.89672,-1.04513c-0.41289,-0.51611 -0.65804,-1.07094 -0.73546,-1.66447c-0.07742,-0.59353 -0.06451,-1.08384 0.03871,-1.47092l5.38049,-19.39297c3.38054,1.23867 6.65141,3.19345 9.81261,5.86434c3.1612,2.67089 5.29662,5.74822 6.40626,9.23198l1.74188,6.30949c0.12903,0.54192 -0.03226,1.01287 -0.48386,1.41286c-0.4516,0.39999 -1.05158,0.65159 -1.79995,0.75482h11.53514c-0.82578,-0.10322 -1.5677,-0.35483 -2.22574,-0.75482c-0.65804,-0.39999 -1.07739,-0.87094 -1.25803,-1.41286zM210.32509,315.915v0c-2.01284,-3.1999 -4.3031,-5.79983 -6.87076,-7.79977c-2.56767,-1.99994 -5.07727,-3.54183 -7.52881,-4.62567l5.4579,-19.62522z" data-paper-data="{&quot;glyphName&quot;:&quot;&quot;,&quot;glyphIndex&quot;:0,&quot;firstGlyphOfWord&quot;:true,&quot;word&quot;:1}" fill="#ffffff" style="stroke: rgb(240, 67, 147); stroke-width: 1; fill-opacity: 1; stroke-opacity: 0; stroke-dasharray: 328, 368; stroke-dashoffset: 0; transition: fill-opacity 1200ms linear 0s, stroke-opacity 1200ms 0s;"></path><path d="M238.89199,291.02542v0l-7.93525,1.12255c0.72256,0.10322 1.3419,0.36128 1.85801,0.77417c0.51611,0.41289 0.77417,0.8903 0.77417,1.43222v32.51516c0,0.54192 -0.25806,1.01287 -0.77417,1.41286c-0.51611,0.39999 -1.13545,0.65159 -1.85801,0.75482h10.52872c-0.69675,-0.10322 -1.30319,-0.35483 -1.8193,-0.75482c-0.51611,-0.39999 -0.77417,-0.87094 -0.77417,-1.41286v-16.21887c0,-3.97408 0.48386,-7.30946 1.45157,-10.00615c0.96771,-2.69669 2.23864,-4.7676 3.81279,-6.21272c1.57415,-1.44512 3.29022,-2.24509 5.14823,-2.39993c1.54834,-0.15483 3.01281,0.14838 4.39342,0.90965c1.3806,0.76127 2.51605,2.01284 3.40635,3.75473c0.8903,1.74188 1.33544,4.00633 1.33544,6.79335v23.37995c0,0.54192 -0.25806,1.01287 -0.77417,1.41286c-0.51611,0.39999 -1.13545,0.65159 -1.85801,0.75482c1.3419,0 3.08378,0 5.22565,0c1.98704,0 3.75473,0 5.30307,0c-0.72256,-0.10322 -1.3419,-0.35483 -1.85801,-0.75482c-0.51611,-0.39999 -0.77417,-0.87094 -0.77417,-1.41286v-23.49607c0,-2.58057 -0.64514,-4.81921 -1.93543,-6.71593c-1.29028,-1.89672 -2.9354,-3.32893 -4.93534,-4.29665c-1.99994,-0.96771 -4.09665,-1.39996 -6.29014,-1.29674c-2.78701,0.12903 -5.25791,1.23222 -7.41268,3.30958c-2.15477,2.07736 -3.56764,5.27081 -4.23858,9.58036z" data-paper-data="{&quot;glyphName&quot;:&quot;n&quot;,&quot;glyphIndex&quot;:1,&quot;word&quot;:1}" fill="#ffffff" style="stroke: rgb(240, 67, 147); stroke-width: 1; fill-opacity: 1; stroke-opacity: 0; stroke-dasharray: 236, 276; stroke-dashoffset: 0; transition: fill-opacity 1200ms linear 0s, stroke-opacity 1200ms 0s;"></path><path d="M279.49723,309.60551v0v0c0,4.18052 0.48386,7.59977 1.45157,10.25776c0.96771,2.65799 2.21284,4.59341 3.73537,5.80628c1.52254,1.21287 3.13539,1.75479 4.83857,1.62576c1.70318,-0.12903 3.31603,-0.89675 4.83857,-2.30316c1.52254,-1.40641 2.77411,-3.3999 3.75473,-5.98047c0.98062,-2.58057 1.47092,-5.70306 1.47092,-9.36746c0,-3.6128 -0.49031,-6.69012 -1.47092,-9.23198c-0.98062,-2.54186 -2.23219,-4.50954 -3.75473,-5.90305c-1.52254,-1.39351 -3.13539,-2.16123 -4.83857,-2.30316c-1.70318,-0.14193 -3.31603,0.38063 -4.83857,1.5677c-1.52254,1.18706 -2.76766,3.08378 -3.73537,5.69015c-0.96771,2.60637 -1.45157,5.98692 -1.45157,10.14163zM305.08356,324.39216v0c0,0.64514 0.03226,1.27738 0.09677,1.89672c0.06451,0.61934 0.26451,1.16771 0.59998,1.64511c0.33547,0.47741 0.8903,0.84514 1.66447,1.10319c-1.67737,0.07742 -3.07733,0.04516 -4.19987,-0.09677c-1.12255,-0.14193 -1.98059,-0.59353 -2.57412,-1.3548c-0.59353,-0.76127 -0.8903,-2.07091 -0.8903,-3.92892v-8.51588c-0.64514,3.50957 -1.70963,6.32884 -3.19345,8.45781c-1.48383,2.12897 -3.1999,3.61925 -5.14823,4.47083c-1.94833,0.85159 -3.92892,1.07739 -5.94176,0.6774c-2.01284,-0.39999 -3.89021,-1.38706 -5.63209,-2.9612c-1.74188,-1.57415 -3.14829,-3.70957 -4.21923,-6.40626c-1.07094,-2.69669 -1.6064,-5.91595 -1.6064,-9.65778c0,-3.74182 0.55482,-6.94173 1.66447,-9.59971c1.10964,-2.65799 2.54831,-4.74825 4.316,-6.27078c1.76769,-1.52254 3.67086,-2.46444 5.70951,-2.82572c2.03865,-0.36128 4.03214,-0.11613 5.98047,0.73546c1.94833,0.85159 3.64505,2.31606 5.09017,4.39342c1.44512,2.07736 2.43864,4.80631 2.98056,8.18685v-27.56047c0,-0.54192 -0.25806,-1.01932 -0.77417,-1.43222c-0.51611,-0.41289 -1.12255,-0.67095 -1.8193,-0.77417l7.89654,-1.12255z" data-paper-data="{&quot;glyphName&quot;:&quot;d&quot;,&quot;glyphIndex&quot;:2,&quot;word&quot;:1}" fill="#ffffff" style="stroke: rgb(240, 67, 147); stroke-width: 1; fill-opacity: 1; stroke-opacity: 0; stroke-dasharray: 297, 337; stroke-dashoffset: 0; transition: fill-opacity 1200ms linear 0s, stroke-opacity 1200ms 0s;"></path><path d="M322.48573,290.94682v0l-5.50731,1.11687c0.7189,0.1027 1.3351,0.35945 1.84861,0.77025c0.5135,0.4108 0.77025,0.88579 0.77025,1.42497v32.35061c0,0.53918 -0.25675,1.00775 -0.77025,1.40571c-0.5135,0.39796 -1.1297,0.6483 -1.84861,0.751h8.08765c-0.69323,-0.1027 -1.29659,-0.35303 -1.81009,-0.751c-0.5135,-0.39796 -0.77025,-0.86653 -0.77025,-1.40571v-26.57372c0,-2.18238 0.5456,-3.91545 1.63679,-5.19921c1.09119,-1.28375 2.4263,-2.07968 4.00531,-2.38778c1.57902,-0.3081 3.1452,-0.09628 4.69854,0.63546c1.55334,0.73174 2.83068,2.03475 3.83201,3.90903l-1.65604,-6.27756c-0.4108,0.25675 -0.91147,0.50708 -1.50199,0.751c-0.59053,0.24391 -1.18105,0.34019 -1.77158,0.28884c-2.49048,-0.33378 -4.49314,-0.05135 -6.00797,0.84728c-1.51483,0.89863 -2.59318,2.13103 -3.23506,3.69721z" data-paper-data="{&quot;glyphName&quot;:&quot;r&quot;,&quot;glyphIndex&quot;:3,&quot;fontStyleEffect&quot;:true,&quot;word&quot;:1}" fill="#ffffff" style="stroke: rgb(240, 67, 147); stroke-width: 1; fill-opacity: 1; stroke-opacity: 0; stroke-dasharray: 131, 171; stroke-dashoffset: 0; transition: fill-opacity 1200ms linear 0s, stroke-opacity 1200ms 0s;"></path><path d="M375.16925,293.23249v0l-11.1903,31.44126l-11.15158,-31.44126c-0.1807,-0.54209 -0.07099,-1.01319 0.32913,-1.41331c0.40011,-0.40011 0.97447,-0.6518 1.72307,-0.75505h-8.75089c0.80023,0.10326 1.54238,0.35494 2.22644,0.75505c0.68407,0.40011 1.14226,0.87122 1.37459,1.41331l12.70041,35.77799l-3.25254,9.09938c-1.05837,2.83952 -2.16191,4.88527 -3.31063,6.13724c-1.14872,1.25197 -2.26516,1.87796 -3.34935,1.87796c-1.05837,0.02581 -1.72953,-0.94221 -2.01348,-2.90406c-0.07744,-0.85186 -0.25168,-1.36813 -0.52273,-1.54883c-0.27105,-0.1807 -0.555,-0.13552 -0.85186,0.13552c-0.29686,0.27105 -0.52273,0.6518 -0.67761,1.14226c-0.15488,0.49046 -0.16779,0.96802 -0.03872,1.43267c0.33558,0.9293 0.87767,1.56819 1.62627,1.91668c0.7486,0.34849 1.56174,0.48401 2.43941,0.40657c1.6779,-0.07744 3.09121,-0.81959 4.23992,-2.22644c1.14872,-1.40685 2.23935,-3.59458 3.2719,-6.56317c4.15603,-11.5646 8.28624,-23.14211 12.39064,-34.73253c1.16162,-3.32999 2.33615,-6.64706 3.52359,-9.95124c0.20651,-0.54209 0.65825,-1.01319 1.35523,-1.41331c0.69697,-0.40011 1.44558,-0.6518 2.2458,-0.75505h-6.38893c0.7486,0.10326 1.32296,0.35494 1.72307,0.75505c0.40011,0.40011 0.50982,0.87122 0.32913,1.41331z" data-paper-data="{&quot;glyphName&quot;:&quot;y&quot;,&quot;glyphIndex&quot;:4,&quot;lastGlyphOfWord&quot;:true,&quot;fontStyleEffect&quot;:true,&quot;word&quot;:1}" fill="#ffffff" style="stroke: rgb(240, 67, 147); stroke-width: 1; fill-opacity: 1; stroke-opacity: 0; stroke-dasharray: 231, 271; stroke-dashoffset: 0; transition: fill-opacity 1200ms linear 0s, stroke-opacity 1200ms 0s;"></path></g><g data-paper-data="{&quot;fillRule&quot;:&quot;evenodd&quot;,&quot;fillRuleOriginal&quot;:&quot;evenodd&quot;,&quot;isIcon&quot;:true,&quot;iconStyle&quot;:&quot;standalone&quot;,&quot;selectedEffects&quot;:{&quot;container&quot;:&quot;&quot;,&quot;transformation&quot;:&quot;&quot;,&quot;pattern&quot;:&quot;&quot;},&quot;bounds&quot;:{&quot;x&quot;:222.63290986758517,&quot;y&quot;:115.00000000000001,&quot;width&quot;:104.73418026482966,&quot;height&quot;:128.07165270943653},&quot;iconType&quot;:&quot;icon&quot;,&quot;rawIconId&quot;:&quot;15144&quot;,&quot;isDetailed&quot;:false,&quot;suitableAsStandaloneIcon&quot;:true}" fill-rule="evenodd" style="stroke: rgb(240, 67, 147); stroke-width: 1; fill-opacity: 1; stroke-opacity: 0; transition: fill-opacity 1200ms linear 0s, stroke-opacity 1200ms 0s;"><path d="M277.85236,208.98226c-0.27547,-0.13923 -0.42369,-0.44165 -0.3623,-0.74257c2.52459,-12.51232 -4.82072,-21.20863 -12.5993,-30.41771l-0.00943,-0.01123c-12.62071,-14.93675 -25.6666,-30.38253 7.20713,-62.61699c0.23355,-0.23355 0.60933,-0.259 0.87731,-0.05989c0.26798,0.19912 0.35183,0.56292 0.19762,0.85785c-7.35085,14.04447 0.06887,24.06169 7.92425,34.66578c10.48731,14.15825 22.37294,30.20737 -2.42683,58.16755c-0.13175,0.14672 -0.31739,0.22756 -0.50602,0.22756c-0.1033,0 -0.20661,-0.02396 -0.30242,-0.07036zM250.70047,180.48176l-0.00134,-0.00165c-8.50813,-10.60709 -16.54166,-20.62581 -12.51441,-32.84379c0.10031,-0.30541 -0.02545,-0.63927 -0.30541,-0.79946c-0.27847,-0.15869 -0.63029,-0.1018 -0.84438,0.13773c-10.29569,11.59967 -15.11491,23.86257 -14.31694,36.44736c1.53754,24.23236 23.66945,43.57364 32.00091,50.85413c0.72161,0.63029 1.3489,1.17823 1.86841,1.64683c0.12426,0.11079 0.28595,0.17217 0.45213,0.17217c0.02396,0 0.04641,0 0.07036,-0.00449c0.19163,-0.01946 0.3638,-0.11977 0.47908,-0.27547c17.80913,-24.52939 4.68852,-40.89409 -6.88839,-55.33336zM303.35128,156.74929c0.259,-0.18265 0.60783,-0.16319 0.84138,0.04641c20.14523,17.86811 27.49758,37.55522 20.71414,55.43381c-6.67865,17.58515 -26.98706,30.84214 -47.24008,30.84214h-0.00599c-3.30115,0 -6.51247,-0.3623 -9.55012,-1.07044c-0.23505,-0.05539 -0.42369,-0.22906 -0.49405,-0.45812c-0.07336,-0.22906 -0.01647,-0.47908 0.14522,-0.65574c3.52721,-3.88952 7.12928,-7.62932 10.61756,-11.24336l0.00314,-0.00329c20.43283,-21.18438 38.07981,-39.48037 24.73375,-72.08148c-0.11977,-0.29194 -0.02246,-0.62729 0.23505,-0.80994z" data-paper-data="{&quot;isPathIcon&quot;:true}" style="stroke: rgb(240, 67, 147); stroke-width: 1; fill-opacity: 1; stroke-opacity: 0; stroke-dasharray: 654, 694; stroke-dashoffset: 0; transition: fill-opacity 1200ms linear 0s, stroke-opacity 1200ms 0s;"></path></g></g></g></svg>